<?xml version="1.0" standalone="no"?>
<!DOCTYPE svg PUBLIC "-//W3C//DTD SVG 20010904//EN" "http://www.w3.org/TR/2001/REC-SVG-20010904/DTD/svg10.dtd">
<svg version="1.0" xmlns="http://www.w3.org/2000/svg" width="816.000000pt" height="331.000000pt"
    viewBox="0 0 816.000000 331.000000" preserveAspectRatio="xMidYMid meet">
    <g transform="translate(0.000000,331.000000) scale(0.100000,-0.100000)" fill="#5a8a1d" stroke="5a8a1d"
        stroke-width="1" stroke-linecap="round" stroke-linejoin="round">
        <path d="M692 3293 c2 -14 17 -19 63 -23 76 -7 102 -21 113 -64 10 -36 -116
-2186 -139 -2361 -38 -302 -137 -485 -294 -545 -55 -20 -71 -22 -193 -16 -148
7 -183 -1 -220 -49 -16 -20 -22 -41 -22 -80 0 -62 21 -94 83 -128 36 -19 57
-22 157 -22 105 0 120 2 172 28 169 83 292 319 346 662 28 175 24 125 102
1392 48 780 72 1127 81 1141 7 11 24 25 36 31 16 8 220 11 628 11 l604 0 28
-24 28 -24 3 -1562 c1 -1127 -1 -1566 -9 -1576 -7 -9 -42 -14 -102 -16 -84 -3
-92 -5 -92 -23 0 -20 8 -20 353 -23 l352 -2 0 25 c0 24 -1 24 -107 27 l-108 3
-3 1571 c-2 1827 -19 1616 124 1624 74 4 89 8 92 23 3 16 -52 17 -1038 17
-986 0 -1041 -1 -1038 -17z" />
        <path d="M3298 1061 c-154 -49 -260 -166 -303 -332 -25 -95 -17 -329 15 -417
48 -134 142 -238 260 -284 85 -33 244 -37 330 -8 117 39 210 115 251 204 25
55 26 147 1 169 -22 20 -77 23 -88 5 -5 -7 -8 -49 -9 -93 -1 -120 -48 -195
-159 -253 -44 -23 -63 -27 -136 -27 -73 0 -93 4 -142 28 -31 15 -71 44 -89 64
-77 88 -119 245 -119 444 l0 109 378 2 377 3 3 38 c5 53 -23 143 -64 204 -72
111 -187 163 -353 162 -64 0 -115 -6 -153 -18z m250 -13 c34 -8 60 -25 98 -63
60 -60 85 -124 87 -223 l2 -67 -307 -3 c-350 -3 -322 -11 -292 89 23 76 49
124 97 176 83 90 193 122 315 91z" />
        <path d="M4368 1061 c-153 -50 -260 -154 -318 -306 -31 -81 -39 -268 -16 -373
37 -176 134 -293 286 -347 274 -98 590 56 590 287 0 65 -21 98 -63 98 -46 0
-59 -29 -51 -112 8 -87 -10 -141 -66 -196 -55 -55 -105 -75 -201 -80 -109 -5
-174 14 -236 71 -84 78 -118 166 -133 344 -23 291 52 496 215 581 45 24 61 27
155 27 93 0 111 -3 155 -26 91 -46 121 -113 101 -230 -7 -36 -5 -49 9 -62 26
-26 70 -21 95 11 19 23 21 37 18 93 -6 102 -57 164 -178 214 -68 28 -285 32
-362 6z" />
        <path d="M6480 1066 c-127 -37 -229 -118 -250 -197 -6 -24 -28 -77 -48 -118
-35 -71 -37 -80 -41 -191 -5 -183 33 -299 134 -408 92 -100 199 -142 360 -142
238 0 401 123 471 355 28 92 26 297 -3 391 -44 138 -141 244 -271 295 -46 18
-81 23 -182 25 -82 2 -141 -1 -170 -10z m258 -22 c167 -54 252 -218 252 -488
-1 -298 -84 -459 -265 -511 -161 -47 -329 32 -400 188 -32 70 -55 189 -56 289
0 46 -4 108 -8 139 l-7 56 27 -10 c21 -8 33 -7 54 7 26 17 27 21 22 84 -6 72
4 111 40 160 65 87 218 126 341 86z" />
        <path d="M7617 1069 c-163 -38 -287 -169 -333 -348 -25 -100 -16 -312 18 -407
73 -206 223 -314 437 -314 137 0 235 36 323 118 68 63 98 125 98 201 0 41 -5
65 -16 75 -16 17 -61 21 -80 8 -6 -4 -13 -45 -16 -92 -3 -70 -9 -95 -34 -140
-84 -155 -310 -198 -455 -86 -99 76 -147 211 -156 438 l-6 148 379 2 379 3 3
43 c10 138 -103 292 -252 342 -65 22 -215 26 -289 9z m236 -25 c100 -34 168
-144 171 -279 l1 -70 -307 -3 c-260 -2 -308 0 -308 12 0 21 40 146 57 180 36
70 125 143 203 167 43 13 135 10 183 -7z" />
        <path d="M5010 1051 c0 -6 24 -11 53 -13 l52 -3 0 -495 0 -495 -52 -3 c-29 -2
-53 -7 -53 -13 0 -5 70 -9 170 -9 107 0 170 4 170 10 0 6 -25 10 -55 10 l-55
0 0 265 0 265 275 0 275 0 0 -265 0 -265 -55 0 c-30 0 -55 -4 -55 -10 0 -6 65
-10 175 -10 110 0 175 4 175 10 0 6 -25 10 -55 10 l-55 0 0 500 0 500 55 0
c30 0 55 5 55 10 0 6 -65 10 -175 10 -110 0 -175 -4 -175 -10 0 -5 25 -10 55
-10 l55 0 0 -225 0 -225 -275 0 -275 0 0 225 0 225 55 0 c30 0 55 5 55 10 0 6
-63 10 -170 10 -100 0 -170 -4 -170 -9z" />
    </g>
</svg>